name rise34.3697peak60.0498fall86.3158.mot
datacolumns 19
datarows 36
range 4.51331800000000 4.57164700000000
endheader
time	ground_force1_vx	ground_force1_vy	ground_force1_vz	ground_force1_px	ground_force1_py	ground_force1_pz	ground_force2_vx	ground_force2_vy	ground_force2_vz	ground_force2_px	ground_force2_py	ground_force2_pz	ground_torque1_x	ground_torque1_y	ground_torque1_z	ground_torque2_x	ground_torque2_y	ground_torque2_z	
4.51331800000000	64.12117600000001	778.32165399999997	60.18194200000000	0.44744700000000	0.00000000000000	0.11668500000000	0.00000000000000	0.00000000000000	0.00000000000000	0.00000000000000	0.00000000000000	0.00000000000000	0.00000000000000	37.68286100000000	0.00000000000000	0.00000000000000	0.00000000000000	0.00000000000000	
4.51498700000000	63.61797400000000	781.97945000000004	60.38136000000000	0.44619300000000	0.00000000000000	0.11668500000000	0.00000000000000	0.00000000000000	0.00000000000000	0.00000000000000	0.00000000000000	0.00000000000000	0.00000000000000	37.81124100000000	0.00000000000000	0.00000000000000	0.00000000000000	0.00000000000000	
4.51665500000000	63.11223100000000	785.49097200000006	60.57364000000000	0.44495000000000	0.00000000000000	0.11668600000000	0.00000000000000	0.00000000000000	0.00000000000000	0.00000000000000	0.00000000000000	0.00000000000000	0.00000000000000	37.93437700000000	0.00000000000000	0.00000000000000	0.00000000000000	0.00000000000000	
4.51831500000000	62.60411100000000	788.85236999999995	60.75832600000000	0.44371700000000	0.00000000000000	0.11668700000000	0.00000000000000	0.00000000000000	0.00000000000000	0.00000000000000	0.00000000000000	0.00000000000000	0.00000000000000	38.05200700000000	0.00000000000000	0.00000000000000	0.00000000000000	0.00000000000000	
4.51998700000000	62.09372800000000	792.05994399999997	60.93491600000000	0.44249700000000	0.00000000000000	0.11668800000000	0.00000000000000	0.00000000000000	0.00000000000000	0.00000000000000	0.00000000000000	0.00000000000000	0.00000000000000	38.16383900000000	0.00000000000000	0.00000000000000	0.00000000000000	0.00000000000000	
4.52164600000000	61.58113900000000	795.11017200000003	61.10287000000000	0.44128800000000	0.00000000000000	0.11668900000000	0.00000000000000	0.00000000000000	0.00000000000000	0.00000000000000	0.00000000000000	0.00000000000000	0.00000000000000	38.26955300000000	0.00000000000000	0.00000000000000	0.00000000000000	0.00000000000000	
4.52331700000000	61.06636000000000	797.99971900000003	61.26161500000000	0.44009200000000	0.00000000000000	0.11669000000000	0.00000000000000	0.00000000000000	0.00000000000000	0.00000000000000	0.00000000000000	0.00000000000000	0.00000000000000	38.36880300000000	0.00000000000000	0.00000000000000	0.00000000000000	0.00000000000000	
4.52498000000000	60.54935900000000	800.72546599999998	61.41054900000000	0.43890800000000	0.00000000000000	0.11669000000000	0.00000000000000	0.00000000000000	0.00000000000000	0.00000000000000	0.00000000000000	0.00000000000000	0.00000000000000	38.46122400000000	0.00000000000000	0.00000000000000	0.00000000000000	0.00000000000000	
4.52664700000000	60.03006600000000	803.28452000000004	61.54905000000000	0.43773800000000	0.00000000000000	0.11668900000000	0.00000000000000	0.00000000000000	0.00000000000000	0.00000000000000	0.00000000000000	0.00000000000000	0.00000000000000	38.54643600000000	0.00000000000000	0.00000000000000	0.00000000000000	0.00000000000000	
4.52831400000000	59.50837700000000	805.67423199999996	61.67647700000000	0.43658000000000	0.00000000000000	0.11668800000000	0.00000000000000	0.00000000000000	0.00000000000000	0.00000000000000	0.00000000000000	0.00000000000000	0.00000000000000	38.62404600000000	0.00000000000000	0.00000000000000	0.00000000000000	0.00000000000000	
4.52998500000000	58.98415600000000	807.89221899999995	61.79218300000000	0.43543600000000	0.00000000000000	0.11668600000000	0.00000000000000	0.00000000000000	0.00000000000000	0.00000000000000	0.00000000000000	0.00000000000000	0.00000000000000	38.69365300000000	0.00000000000000	0.00000000000000	0.00000000000000	0.00000000000000	
4.53164500000000	58.45724000000000	809.93637100000001	61.89551200000000	0.43430400000000	0.00000000000000	0.11668400000000	0.00000000000000	0.00000000000000	0.00000000000000	0.00000000000000	0.00000000000000	0.00000000000000	0.00000000000000	38.75485600000000	0.00000000000000	0.00000000000000	0.00000000000000	0.00000000000000	
4.53332400000000	57.92744500000000	811.80487000000005	61.98581400000000	0.43318600000000	0.00000000000000	0.11668000000000	0.00000000000000	0.00000000000000	0.00000000000000	0.00000000000000	0.00000000000000	0.00000000000000	0.00000000000000	38.80725000000000	0.00000000000000	0.00000000000000	0.00000000000000	0.00000000000000	
4.53498200000000	57.39456800000000	813.49620100000004	62.06244600000000	0.43208100000000	0.00000000000000	0.11667500000000	0.00000000000000	0.00000000000000	0.00000000000000	0.00000000000000	0.00000000000000	0.00000000000000	0.00000000000000	38.85044000000000	0.00000000000000	0.00000000000000	0.00000000000000	0.00000000000000	
4.53665000000000	56.85839200000000	815.00916400000006	62.12477700000000	0.43098900000000	0.00000000000000	0.11666900000000	0.00000000000000	0.00000000000000	0.00000000000000	0.00000000000000	0.00000000000000	0.00000000000000	0.00000000000000	38.88403500000000	0.00000000000000	0.00000000000000	0.00000000000000	0.00000000000000	
4.53831500000000	56.31869400000000	816.34288400000003	62.17219800000000	0.42990900000000	0.00000000000000	0.11666200000000	0.00000000000000	0.00000000000000	0.00000000000000	0.00000000000000	0.00000000000000	0.00000000000000	0.00000000000000	38.90765900000000	0.00000000000000	0.00000000000000	0.00000000000000	0.00000000000000	
4.53998400000000	55.77524100000000	817.49681799999996	62.20412200000000	0.42884100000000	0.00000000000000	0.11665300000000	0.00000000000000	0.00000000000000	0.00000000000000	0.00000000000000	0.00000000000000	0.00000000000000	0.00000000000000	38.92095400000000	0.00000000000000	0.00000000000000	0.00000000000000	0.00000000000000	
4.54164800000000	55.22780300000000	818.47076600000003	62.21999600000000	0.42778600000000	0.00000000000000	0.11664300000000	0.00000000000000	0.00000000000000	0.00000000000000	0.00000000000000	0.00000000000000	0.00000000000000	0.00000000000000	38.92357800000000	0.00000000000000	0.00000000000000	0.00000000000000	0.00000000000000	
4.54331500000000	54.67615100000000	819.26487399999996	62.21929900000000	0.42674200000000	0.00000000000000	0.11663100000000	0.00000000000000	0.00000000000000	0.00000000000000	0.00000000000000	0.00000000000000	0.00000000000000	0.00000000000000	38.91521500000000	0.00000000000000	0.00000000000000	0.00000000000000	0.00000000000000	
4.54498100000000	54.12006400000000	819.87963900000000	62.20155200000000	0.42571000000000	0.00000000000000	0.11661700000000	0.00000000000000	0.00000000000000	0.00000000000000	0.00000000000000	0.00000000000000	0.00000000000000	0.00000000000000	38.89557400000000	0.00000000000000	0.00000000000000	0.00000000000000	0.00000000000000	
4.54665100000000	53.55933100000000	820.31591400000002	62.16631900000000	0.42468800000000	0.00000000000000	0.11660200000000	0.00000000000000	0.00000000000000	0.00000000000000	0.00000000000000	0.00000000000000	0.00000000000000	0.00000000000000	38.86439300000000	0.00000000000000	0.00000000000000	0.00000000000000	0.00000000000000	
4.54831500000000	52.99375400000000	820.57490700000005	62.11321200000000	0.42367600000000	0.00000000000000	0.11658500000000	0.00000000000000	0.00000000000000	0.00000000000000	0.00000000000000	0.00000000000000	0.00000000000000	0.00000000000000	38.82144300000000	0.00000000000000	0.00000000000000	0.00000000000000	0.00000000000000	
4.54998600000000	52.42315300000000	820.65818200000001	62.04189900000000	0.42267500000000	0.00000000000000	0.11656700000000	0.00000000000000	0.00000000000000	0.00000000000000	0.00000000000000	0.00000000000000	0.00000000000000	0.00000000000000	38.76652700000000	0.00000000000000	0.00000000000000	0.00000000000000	0.00000000000000	
4.55165100000000	51.84736800000000	820.56765700000005	61.95209800000000	0.42168200000000	0.00000000000000	0.11654600000000	0.00000000000000	0.00000000000000	0.00000000000000	0.00000000000000	0.00000000000000	0.00000000000000	0.00000000000000	38.69948600000000	0.00000000000000	0.00000000000000	0.00000000000000	0.00000000000000	
4.55331800000000	51.26626300000000	820.30560300000002	61.84358900000000	0.42069800000000	0.00000000000000	0.11652400000000	0.00000000000000	0.00000000000000	0.00000000000000	0.00000000000000	0.00000000000000	0.00000000000000	0.00000000000000	38.62019600000000	0.00000000000000	0.00000000000000	0.00000000000000	0.00000000000000	
4.55498400000000	50.67972500000000	819.87463700000001	61.71621300000000	0.41972100000000	0.00000000000000	0.11650000000000	0.00000000000000	0.00000000000000	0.00000000000000	0.00000000000000	0.00000000000000	0.00000000000000	0.00000000000000	38.52857600000000	0.00000000000000	0.00000000000000	0.00000000000000	0.00000000000000	
4.55664800000000	50.08767000000000	819.27771700000005	61.56987100000000	0.41875200000000	0.00000000000000	0.11647300000000	0.00000000000000	0.00000000000000	0.00000000000000	0.00000000000000	0.00000000000000	0.00000000000000	0.00000000000000	38.42458400000000	0.00000000000000	0.00000000000000	0.00000000000000	0.00000000000000	
4.55832000000000	49.49004600000000	818.51813700000002	61.40453200000000	0.41778900000000	0.00000000000000	0.11644500000000	0.00000000000000	0.00000000000000	0.00000000000000	0.00000000000000	0.00000000000000	0.00000000000000	0.00000000000000	38.30821700000000	0.00000000000000	0.00000000000000	0.00000000000000	0.00000000000000	
4.55998300000000	48.88682800000000	817.59951500000000	61.22022700000000	0.41683300000000	0.00000000000000	0.11641500000000	0.00000000000000	0.00000000000000	0.00000000000000	0.00000000000000	0.00000000000000	0.00000000000000	0.00000000000000	38.17951800000000	0.00000000000000	0.00000000000000	0.00000000000000	0.00000000000000	
4.56165100000000	48.27802700000000	816.52578500000004	61.01705700000000	0.41588100000000	0.00000000000000	0.11638300000000	0.00000000000000	0.00000000000000	0.00000000000000	0.00000000000000	0.00000000000000	0.00000000000000	0.00000000000000	38.03857000000000	0.00000000000000	0.00000000000000	0.00000000000000	0.00000000000000	
4.56331800000000	47.66368700000000	815.30118700000003	60.79518700000000	0.41493300000000	0.00000000000000	0.11634900000000	0.00000000000000	0.00000000000000	0.00000000000000	0.00000000000000	0.00000000000000	0.00000000000000	0.00000000000000	37.88549900000000	0.00000000000000	0.00000000000000	0.00000000000000	0.00000000000000	
4.56498300000000	47.04388800000000	813.93025100000000	60.55484900000000	0.41398900000000	0.00000000000000	0.11631300000000	0.00000000000000	0.00000000000000	0.00000000000000	0.00000000000000	0.00000000000000	0.00000000000000	0.00000000000000	37.72047300000000	0.00000000000000	0.00000000000000	0.00000000000000	0.00000000000000	
4.56664800000000	46.41874500000000	812.41778899999997	60.29634100000000	0.41304700000000	0.00000000000000	0.11627600000000	0.00000000000000	0.00000000000000	0.00000000000000	0.00000000000000	0.00000000000000	0.00000000000000	0.00000000000000	37.54370100000000	0.00000000000000	0.00000000000000	0.00000000000000	0.00000000000000	
4.56832000000000	45.78840900000000	810.76887699999997	60.02002500000000	0.41210700000000	0.00000000000000	0.11623600000000	0.00000000000000	0.00000000000000	0.00000000000000	0.00000000000000	0.00000000000000	0.00000000000000	0.00000000000000	37.35543300000000	0.00000000000000	0.00000000000000	0.00000000000000	0.00000000000000	
4.56998100000000	45.15306700000000	808.98883799999999	59.72632600000000	0.41116900000000	0.00000000000000	0.11619500000000	0.00000000000000	0.00000000000000	0.00000000000000	0.00000000000000	0.00000000000000	0.00000000000000	0.00000000000000	37.15595700000000	0.00000000000000	0.00000000000000	0.00000000000000	0.00000000000000	
4.57164700000000	44.51294300000000	807.08323199999995	59.41573300000000	0.41023000000000	0.00000000000000	0.11615200000000	0.00000000000000	0.00000000000000	0.00000000000000	0.00000000000000	0.00000000000000	0.00000000000000	0.00000000000000	36.94560200000000	0.00000000000000	0.00000000000000	0.00000000000000	0.00000000000000	
